<svg version="1.1" xmlns="http://www.w3.org/2000/svg" xmlns:xlink="http://www.w3.org/1999/xlink" width="21.59623" height="13.375" viewBox="0,0,21.59623,13.375"><defs><radialGradient cx="233.6875" cy="179.58125" r="6.6875" gradientUnits="userSpaceOnUse" id="color-1"><stop offset="0" stop-color="#ffc600"/><stop offset="1" stop-color="#ffc600" stop-opacity="0"/></radialGradient></defs><g transform="translate(-227.25,-172.89375)"><g data-paper-data="{&quot;isPaintingLayer&quot;:true}" fill-rule="nonzero" stroke="none" stroke-linecap="butt" stroke-linejoin="miter" stroke-miterlimit="10" stroke-dasharray="" stroke-dashoffset="0" style="mix-blend-mode: normal"><path d="M240.125,179.58125c0,3.6934 -2.88217,6.6875 -6.4375,6.6875c-3.55533,0 -6.4375,-2.9941 -6.4375,-6.6875c0,-3.6934 2.88217,-6.6875 6.4375,-6.6875c3.55533,0 6.4375,2.9941 6.4375,6.6875z" fill="url(#color-1)" stroke-width="0"/><g data-paper-data="{&quot;index&quot;:null}" fill="#ff8200" stroke-width="0.5"><path d="M237.35733,177.35804c0,0 4.71573,-0.28342 6.13378,-0.01448c0.68577,0.13006 2.38976,0.79764 3.31156,1.09014c1.15123,0.36531 2.04356,0.98268 2.04356,0.98268c0,0 -0.94957,0.59949 -2.06675,1.07105c-0.95251,0.40205 -6.84538,1.31064 -6.84538,1.31064v-4.07192z"/><path d="M240.06834,177.77452v4.07192c0,0 -1.69532,0.66125 -3.10782,0.28377c-0.39871,-0.10655 -2.97513,-0.69188 -4.08263,-1.11798c-0.86898,-0.33434 -0.2879,-0.51001 -0.70668,-0.68678c-1.11718,-0.47156 -1.015,-0.86069 -1.015,-0.86069c0,0 0.89232,-0.61737 2.04356,-0.98268c0.81179,-0.25759 3.14885,-0.47443 3.83715,-0.57369c0.09328,-0.01345 -1.18588,0.13012 -1.10404,0.1146c1.41805,-0.26894 4.13546,-0.24847 4.13546,-0.24847z" data-paper-data="{&quot;index&quot;:null}"/></g><g data-paper-data="{&quot;index&quot;:null}" fill="#ffa100" stroke-width="0.5"><path d="M242.9532,180.54359c-1.04818,0.19879 -2.89907,0.4466 -2.89907,0.4466v-3.00987c0,0 1.36064,-0.6808 2.40473,-0.40178c0.52596,0.14055 2.89771,0.96821 3.60178,1.2654c0.82579,0.34856 0.58112,0.89686 0.58112,0.89686c0,0 -0.65958,0.45635 -1.51055,0.72637c-0.68138,0.21621 -3.14355,0.7165 -3.65046,0.81264z"/><path d="M240.11448,180.99329c0,0 -0.51371,1.05958 -1.48738,0.98996c-0.37975,-0.02715 -1.27534,-1.11784 -1.56945,-1.17362c-0.50691,-0.09614 -0.07678,0.35015 -0.75815,0.13394c-0.85096,-0.27002 -2.77265,-1.19966 -2.77265,-1.19966c0,0 0.7019,-0.44312 1.52769,-0.79169c0.70407,-0.29718 0.91974,-0.49379 1.4457,-0.63435c1.04409,-0.27902 3.61424,-0.33444 3.61424,-0.33444v3.00987z" data-paper-data="{&quot;index&quot;:null}"/></g><g fill="#ff8200" stroke-width="0.5"><path d="M235.53356,180.00732l-2.63492,0.08883c0,0 -0.19503,-1.29677 0.02005,-2.27007c-0.44733,0.28372 0.44614,-1.77595 0.68662,-2.43551c0.28206,-0.77358 0.65036,-1.43544 0.65036,-1.43544c0,0 0.41793,0.5962 0.67811,1.37479c0.20832,0.62342 0.67551,1.77308 0.77384,2.23879c0.20333,0.96299 -0.17407,2.4386 -0.17407,2.4386z"/><path d="M235.42415,182.74757c-0.00835,0.05625 0.44439,-0.43824 0.43761,-0.37422c-0.05001,0.47243 -0.52831,1.69132 -0.67822,2.25158c-0.2126,0.79453 -0.59366,1.41767 -0.59366,1.41767c0,0 -0.2497,0.0783 -0.57792,-0.67471c-0.27984,-0.64201 -1.12905,-2.75084 -1.2668,-3.23284c-0.27345,-0.95684 0.11941,-2.12955 0.11941,-2.12955l2.63492,-0.08884c0,0 0.0694,1.85619 -0.07533,2.83091z" data-paper-data="{&quot;index&quot;:null}"/></g><g fill="#ffa100" stroke-width="0.5"><path d="M236.93809,181.77523l-1.10719,1.01809c0,0 -0.56654,-0.48864 -0.83534,-0.98979c-0.08809,0.2891 -0.46724,-0.93439 -0.6084,-1.30921c-0.16556,-0.43963 -0.25225,-0.86298 -0.25225,-0.86298c0,0 0.40251,0.10261 0.80459,0.3428c0.32193,0.19233 0.95156,0.51612 1.16726,0.68109c0.44602,0.34112 0.83134,1.12 0.83134,1.12z"/><path d="M237.90956,183.00171c0.0173,0.02745 0.02937,-0.35486 0.05024,-0.32464c0.15401,0.22304 0.40021,0.92832 0.54364,1.2265c0.20341,0.42287 0.27019,0.8342 0.27019,0.8342c0,0 -0.07893,0.12672 -0.50094,-0.0771c-0.3598,-0.17378 -1.51135,-0.77061 -1.75016,-0.92798c-0.47408,-0.31239 -0.74009,-0.96594 -0.74009,-0.96594l1.10719,-1.01809c0,0 0.72016,0.77743 1.01993,1.25304z" data-paper-data="{&quot;index&quot;:null}"/></g><g data-paper-data="{&quot;index&quot;:null}" fill="#ffa100" stroke-width="0.5"><path d="M237.20732,178.22896c0,0 -0.38531,0.77887 -0.83134,1.11999c-0.2157,0.16497 -0.84532,0.48877 -1.16726,0.68109c-0.40207,0.24019 -0.80459,0.3428 -0.80459,0.3428c0,0 0.0867,-0.42335 0.25226,-0.86297c0.14115,-0.37482 0.52031,-1.59831 0.6084,-1.30922c0.2688,-0.50115 0.83533,-0.98979 0.83533,-0.98979l1.10719,1.01809z"/><path d="M237.15886,178.25553l-1.10719,-1.0181c0,0 0.26602,-0.65355 0.74009,-0.96594c0.23881,-0.15737 1.39036,-0.7542 1.75016,-0.92798c0.42201,-0.20382 0.50094,-0.0771 0.50094,-0.0771c0,0 -0.06678,0.41133 -0.27019,0.8342c-0.14344,0.29818 -0.38963,1.00347 -0.54364,1.2265c-0.02087,0.03023 -0.03294,-0.35209 -0.05024,-0.32464c-0.29978,0.47561 -1.01993,1.25305 -1.01993,1.25305z" data-paper-data="{&quot;index&quot;:null}"/></g></g></g></svg>