<svg version="1.1" xmlns="http://www.w3.org/2000/svg" xmlns:xlink="http://www.w3.org/1999/xlink" width="18.01236" height="8.26423" viewBox="0,0,18.01236,8.26423"><g transform="translate(-230.94311,-178.59463)"><g data-paper-data="{&quot;isPaintingLayer&quot;:true}" fill-rule="nonzero" stroke="none" stroke-width="0" stroke-linecap="butt" stroke-linejoin="miter" stroke-miterlimit="10" stroke-dasharray="" stroke-dashoffset="0" style="mix-blend-mode: normal"><path d="M244.51893,184.145v-2.42469h3.68907v2.42469z" fill="#333333"/><path d="M242.23874,182.81306v-2.59349h6.71673v2.59349z" fill="#393939"/><path d="M248.14538,183.83581v-1.0692h0.46078v1.0692z" fill="#303030"/><path d="M231.38738,184.97877v-0.83817h16.82903v0.83817z" fill="#464543"/><path d="M230.96197,186.68371l0.71517,-1.81311l4.51951,-0.07447l-0.83972,2.06274z" fill="#464543"/><path d="M230.94311,185.1848l0.45017,-1.02342l0.10473,0.6812l0.21767,0.04779l-0.72651,1.77272z" fill="#373738"/><path d="M237.22536,181.05967v1.53368h-3.03958v-1.53368z" data-paper-data="{&quot;index&quot;:null}" fill="#2c2c2c"/><path d="M231.34835,182.61512v-4.02048h16.79166v4.02048z" fill="#43464c"/><path d="M231.3623,184.15382v-1.5234h16.80097v1.5234z" fill="#5a5b5c"/><path d="M238.82059,181.05969v1.53367h-5.44648v-1.53367z" data-paper-data="{&quot;index&quot;:null}" fill="#000000"/><path d="M238.82059,182.55447l0.02699,1.19354h-5.4916l0.01813,-1.19354z" data-paper-data="{&quot;index&quot;:null}" fill="#000000"/><path d="M246.1603,181.04396v-0.59721h1.17793v0.59721z" fill="#2e2e2e"/><path d="M231.67938,179.96975v-0.59722h1.17793v0.59722z" fill="#2e2e2e"/><path d="M231.72484,182.16051v-0.59722h1.17793v0.59722z" fill="#2e2e2e"/><path d="M238.86172,181.05966v1.53368h-5.50059v-1.53368z" data-paper-data="{&quot;index&quot;:null}" fill="#2c2c2c"/><path d="M238.86172,182.55445l-0.03636,1.19355h-5.50059l0.03636,-1.19355z" data-paper-data="{&quot;index&quot;:null}" fill="#3a3a3a"/></g></g></svg>