<svg version="1.1" xmlns="http://www.w3.org/2000/svg" xmlns:xlink="http://www.w3.org/1999/xlink" width="23.06166" height="8.26423" viewBox="0,0,23.06166,8.26423"><g transform="translate(-225.8938,-178.59463)"><g data-paper-data="{&quot;isPaintingLayer&quot;:true}" fill-rule="nonzero" stroke="none" stroke-width="0" stroke-linecap="butt" stroke-linejoin="miter" stroke-miterlimit="10" stroke-dasharray="" stroke-dashoffset="0" style="mix-blend-mode: normal"><path d="M244.51892,184.14499v-2.42469h3.68907v2.42469z" fill="#333333"/><path d="M242.23873,182.81305v-2.59349h6.71673v2.59349z" fill="#393939"/><path d="M248.14537,183.8358v-1.0692h0.46078v1.0692z" fill="#303030"/><path d="M231.38737,184.97876v-0.83817h16.82903v0.83817z" fill="#464543"/><path d="M230.96196,186.6837l0.71517,-1.81311l4.51951,-0.07447l-0.83972,2.06274z" fill="#464543"/><path d="M230.9772,184.16207l0.41608,-0.00069l0.00246,0.84029l0.20631,0.00234l-0.61287,1.65908z" fill="#373738"/><path d="M225.8938,182.61511v-4.02048h18.60733v4.02048z" fill="#43464c"/><path d="M225.90926,184.15381v-1.5234h18.61765v1.5234z" fill="#5a5b5c"/><path d="M234.17401,181.05968v1.53367h-6.0354v-1.53367z" data-paper-data="{&quot;index&quot;:null}" fill="#000000"/><path d="M237.22535,181.05966v1.53368h-3.03958v-1.53368z" data-paper-data="{&quot;index&quot;:null}" fill="#2c2c2c"/><path d="M234.17401,182.55446l0.02991,1.19354h-6.0854l0.02009,-1.19354z" data-paper-data="{&quot;index&quot;:null}" fill="#000000"/><path d="M237.22535,182.55445l-0.02009,1.19355h-3.03958l0.02009,-1.19355z" data-paper-data="{&quot;index&quot;:null}" fill="#3a3a3a"/><path d="M242.52393,181.04395v-0.59721h1.17793v0.59721z" fill="#2e2e2e"/><path d="M226.40665,179.83338v-0.59722h1.17793v0.59722z" fill="#2e2e2e"/><path d="M226.40665,182.20596v-0.59722h1.17793v0.59722z" fill="#2e2e2e"/></g></g></svg>