<svg version="1.1" xmlns="http://www.w3.org/2000/svg" xmlns:xlink="http://www.w3.org/1999/xlink" width="22.88671" height="11.38333" viewBox="0,0,22.88671,11.38333"><g transform="translate(-227.33035,-180.79838)"><g data-paper-data="{&quot;isPaintingLayer&quot;:true}" fill-rule="nonzero" stroke="none" stroke-width="0" stroke-linecap="butt" stroke-linejoin="miter" stroke-miterlimit="10" stroke-dasharray="" stroke-dashoffset="0" style="mix-blend-mode: normal"><path d="M231.04524,188.37608v-1.62934h18.38999v1.62934z" fill="#49494a"/><path d="M230.71114,191.64968l0.83605,-3.72751l4.84554,0.24973l-0.91205,4.00981z" fill="#49494a"/><path d="M230.66885,188.83866l0.38182,-1.55936l0.03672,1.13147l0.34334,0.00234l-0.68995,3.26914z" fill="#373738"/><path d="M245.39563,186.86064v-2.89512h4.05258v2.89512z" fill="#333333"/><path d="M243.50033,184.8872v-2.59349h6.71673v2.59349z" fill="#393939"/><path d="M227.33353,186.8765v-2.57117h18.38999v2.57117z" fill="#5a5b5c"/><path d="M227.33035,184.28705v-3.48867h18.40326v3.48867z" fill="#43464c"/><path d="M243.77629,182.73597v-0.59721h1.2553v0.59721z" fill="#2e2e2e"/><path d="M227.68481,181.55941v-0.59722h1.2553v0.59722z" fill="#2e2e2e"/><path d="M227.68481,183.93199v-0.59722h1.2553v0.59722z" fill="#2e2e2e"/><path d="M249.40697,186.31623v-1.0692h0.46078v1.0692z" fill="#303030"/><path d="M229.98518,185.86873v-1.53367h5.4625v1.53367z" fill="#000000"/><path d="M229.98518,184.40795l-0.12022,-1.53367h5.50775l0.07497,1.53367z" fill="#000000"/><path d="M235.42603,185.86875l0.00608,-1.53368h3.69268l0.0171,1.53368z" fill="#3a3a3a"/><path d="M235.4211,184.40797l-0.08729,-1.53368h3.65583l0.11809,1.53368z" fill="#2c2c2c"/></g></g></svg>