<svg version="1.1" xmlns="http://www.w3.org/2000/svg" xmlns:xlink="http://www.w3.org/1999/xlink" width="23.22089" height="6.88582" viewBox="0,0,23.22089,6.88582"><g transform="translate(-227.25022,-175.20396)"><g data-paper-data="{&quot;isPaintingLayer&quot;:true}" fill-rule="nonzero" stroke="none" stroke-width="0" stroke-linecap="butt" stroke-linejoin="miter" stroke-miterlimit="10" stroke-dasharray="" stroke-dashoffset="0" style="mix-blend-mode: normal"><path d="M245.09135,182.024v-5.49912h4.37014v5.49912z" fill="#333333"/><path d="M243.75438,180.4096v-2.59349h6.71673v2.59349z" fill="#272727"/><path d="M227.25022,182.05657v-4.64873h17.86367v4.64873z" fill="#43464c"/><path d="M230.8593,182.08975v-2.01001h5.4625v2.01001z" fill="#000000"/><path d="M236.33245,182.08978v-2.01001h2.75105v2.01001z" fill="#242424"/><path d="M243.66529,179.9545v-0.75318h1.2553v0.75318z" fill="#242424"/><path d="M227.57381,178.47066v-0.75319h1.2553v0.75319z" fill="#242424"/><path d="M227.57381,181.4629v-0.75319h1.2553v0.75319z" fill="#242424"/><path d="M227.30245,177.41353v-0.94019h17.79384v0.94019z" fill="#292c2f"/><path d="M231.3451,176.49652v-0.49226h18.09759v0.49226z" fill="#202224"/><path d="M231.30419,176.01687l-0.50534,-0.78204l4.84018,-0.03087l0.87876,1.27085z" fill="#202224"/><path d="M230.84351,176.48115l-0.04741,-1.24735l0.53086,0.78491v0.47298z" fill="#383739"/></g></g></svg>